# xmcd CD database file
#
# Track frame offsets:
#	187
#	22260
#	46562
#	63520
#	84585
#	110805
#	128937
#
# Disc length: 2453 seconds
#
# Revision: 2
# Processed by: cddbd v1.5.2PL0 Copyright (c) Steve Scherf et al.
# Submitted via: CDex 1.51
#
DISCID=5d099307
DTITLE=Gil Scott-Heron - Reflections
DYEAR=1981
DGENRE=Jazz+Funk
TTITLE0=Storm Music
TTITLE1=Grandma's Hands
TTITLE2=Is That Jazz?
TTITLE3=Morning Thoughts
TTITLE4=Inner City Blues (Poem - The Siege Of New Orleans)
TTITLE5=Gun
TTITLE6=B Movie (Intro, Poem, Song)
EXTD=YEAR: 1981
EXTT0=
EXTT1=
EXTT2=
EXTT3=
EXTT4=
EXTT5=
EXTT6=
PLAYORDER=
